/* XPM */
static char*vighack[]={
"32 32 4 1",
"a c #c0c000",
"# c #000000",
". c None",
"b c #ffffff",
"................................",
".....######.#######.######......",
"....##aaaa###aaaaa###aaaa##.....",
"....#aaaaaa####a####aaaaaa#.....",
"....#aaaaaa#..#a#..#aaaaaa#.....",
"....##aaaa#####a#####aaaa##.....",
".....#aaaa##aaaaaaaa#aaaa#......",
".....##aaaaaabbbbbaaaaaa##......",
"......#aaaabbbb#bbbbaaaa#.......",
"......#aaabbbb###bbbbaaa#.......",
".....##aabbbbb###bbbbbaa##......",
".....#aabbbbbb###bbbbbbaa#......",
"....##aabbbbbb###bbbbbbaa##.....",
"....#aabbbbbbb###bbbbbbbaa#.....",
"....#aabbbbbbb###bbbbbbbaa#.....",
"....#aabbbbbbb###bbbbbbbaa#.....",
"....#aabbbbbbb########bbaa#.....",
"....#aabbbbbbb#########baa#.....",
"....#aabbbbbbb########bbaa#.....",
"....#aabbbbbbbbbbbbbbbbbaa#.....",
"....##aabbbbbbbbbbbbbbbaa##.....",
".....#aaabbbbbbbbbbbbbaaa#......",
".....##aaabbbbbbbbbbbaaa##......",
"......##aaabbbbbbbbbaaa##.......",
"....###aaaaabbbbbbbaaaaa##......",
"....##aaaaaaaabbbbaaaaaaa##.....",
"...##aaaa###aaaaaaa###aaaa##....",
"..##aaaa##.#########.##aaaa##...",
".##aaaa##.............##aaaa##..",
".#aaaa##...............##aaaa#..",
".#aaa##.................##aaa#..",
".#####...................#####.."};
